<svg width="24" height="24" viewBox="0 0 24 24" fill="none" xmlns="http://www.w3.org/2000/svg">
<g id="Phone">
<path id="Icon" d="M20.6633 18.771C20.6633 18.771 19.5047 19.909 19.2207 20.2426C18.7582 20.7362 18.2132 20.9693 17.4988 20.9693C17.4301 20.9693 17.3568 20.9693 17.2881 20.9647C15.9279 20.8779 14.6639 20.3477 13.7159 19.8953C11.1238 18.643 8.84772 16.8651 6.95631 14.6119C5.39463 12.7335 4.35046 10.9968 3.65892 9.13211C3.23301 7.99409 3.0773 7.10744 3.146 6.27107C3.19179 5.73634 3.39788 5.29302 3.778 4.91368L5.33967 3.35519C5.56408 3.14496 5.80222 3.0307 6.03579 3.0307C6.32431 3.0307 6.55787 3.20437 6.70442 3.35062C6.709 3.35519 6.71358 3.35977 6.71816 3.36434C6.99752 3.62485 7.26315 3.8945 7.54251 4.18243C7.68448 4.32868 7.83103 4.47493 7.97758 4.62575L9.22784 5.87345C9.71329 6.35791 9.71329 6.8058 9.22784 7.29026C9.09503 7.4228 8.96679 7.55534 8.83398 7.68331C8.44929 8.07636 8.75149 7.77477 8.35305 8.13126C8.34389 8.1404 8.33473 8.14497 8.33016 8.15411C7.9363 8.54716 8.00958 8.93107 8.09201 9.19158C8.09659 9.20529 8.10117 9.219 8.10575 9.23271C8.43091 10.0188 8.88888 10.7592 9.58499 11.6413L9.58957 11.6459C10.8536 13.1998 12.1863 14.4109 13.6563 15.3387C13.8441 15.4575 14.0365 15.5535 14.2196 15.6449C14.3845 15.7272 14.5402 15.8049 14.673 15.8871C14.6914 15.8963 14.7097 15.91 14.728 15.9191C14.8837 15.9968 15.0303 16.0334 15.1814 16.0334C15.5615 16.0334 15.7996 15.7957 15.8775 15.718L16.7752 14.8222C16.9309 14.6668 17.1782 14.4794 17.4667 14.4794C17.7507 14.4794 17.9842 14.6576 18.1262 14.813C18.1308 14.8176 18.1308 14.8176 18.1354 14.8222L20.6588 17.3404C21.1305 17.8066 20.6633 18.771 20.6633 18.771Z" stroke="#7A7A7A" stroke-width="2" stroke-linecap="round" stroke-linejoin="round"/>
</g>
</svg>
