<svg width="22" height="22" viewBox="0 0 22 22" fill="none" xmlns="http://www.w3.org/2000/svg">
<path d="M1.3999 20.6L1.40031 16.9996C1.40053 15.0115 3.01224 13.4 5.00031 13.4H12.1998M20.5999 15.6286L18.1999 18.2M18.1999 18.2L15.7999 15.6286M18.1999 18.2V11.6M16.3999 1.4C17.8561 2.21628 18.7999 3.52488 18.7999 5C18.7999 6.47512 17.8561 7.78372 16.3999 8.6M13.3999 5C13.3999 6.98823 11.7881 8.6 9.7999 8.6C7.81167 8.6 6.1999 6.98823 6.1999 5C6.1999 3.01178 7.81167 1.4 9.7999 1.4C11.7881 1.4 13.3999 3.01178 13.3999 5Z" stroke="black" stroke-width="2" stroke-linecap="round" stroke-linejoin="round"/>
</svg>
