<svg width="505" height="174" viewBox="0 0 505 174" fill="none" xmlns="http://www.w3.org/2000/svg">
<rect x="26.4706" y="31" width="52.9411" height="26.4706" fill="#B3B1FC" fill-opacity="0.7"/>
<path d="M26.4706 57.4706H0L13.2353 44.2353L26.4706 31L26.4706 57.4706Z" fill="#B3B1FC"/>
<path d="M73.5295 104.529L73.5295 78.0588L86.7647 91.2941L100 104.529L73.5295 104.529Z" fill="#B3B1FC"/>
<path d="M73.5295 122.176L100 122.176L86.7647 135.412L73.5295 148.647L73.5295 122.176Z" fill="#B3B1FC"/>
<path d="M26.4706 122.176L26.4706 148.647L13.2353 135.412L3.15658e-07 122.176L26.4706 122.176Z" fill="#B3B1FC"/>
<rect x="26.4706" y="57.4706" width="64.7058" height="26.4706" transform="rotate(90 26.4706 57.4706)" fill="#B3B1FC" fill-opacity="0.7"/>
<rect x="26.4706" y="122.176" width="47.0588" height="26.4706" fill="#B3B1FC" fill-opacity="0.7"/>
<rect x="73.5294" y="104.529" width="26.4706" height="17.6471" fill="#B3B1FC" fill-opacity="0.7"/>
<rect x="73.5294" y="78.0588" width="26.4706" height="17.6471" transform="rotate(90 73.5294 78.0588)" fill="#B3B1FC" fill-opacity="0.7"/>
<path d="M111.6 145V38.135H184.68V54.665H129.725V80.765H179.895V97.295H129.725V128.47H184.68V145H111.6ZM222.573 145L190.093 69.165H209.378L231.273 127.745H234.753L256.648 69.165H275.933L243.308 145H222.573ZM299.265 145L283.17 128.905V85.405L299.265 69.165H334.065L350.16 85.405V113.535H300.715V124.265L307.095 130.645H348.855V145H299.265ZM300.715 100.05H332.615V89.175L326.235 82.795H307.095L300.715 89.175V100.05ZM370.431 145V69.165H387.976V82.65L401.606 69.165H428.721L444.816 85.405V145H427.271V89.465L421.181 82.795H405.811L387.976 100.485V145H370.431ZM481.095 145L466.45 130.645V82.795H460.36V69.165H466.885L471.525 50.75H483.995V69.165H497.19V82.795H483.995V124.41L489.94 130.645H500.67V145H481.095Z" fill="#B3B1FC" fill-opacity="0.7"/>
</svg>
