<svg width="382" height="132" viewBox="0 0 382 132" fill="none" xmlns="http://www.w3.org/2000/svg">
<rect x="19.0589" y="27" width="38.1176" height="19.0588" fill="#B3B1FC" fill-opacity="0.7"/>
<path d="M19.0588 46.0588H0L9.5294 36.5294L19.0588 27L19.0588 46.0588Z" fill="#B3B1FC"/>
<path d="M52.9412 79.9411L52.9412 60.8823L62.4706 70.4117L72 79.9411L52.9412 79.9411Z" fill="#B3B1FC"/>
<path d="M52.9412 92.647L72 92.647L62.4706 102.176L52.9412 111.706L52.9412 92.647Z" fill="#B3B1FC"/>
<path d="M19.0588 92.647L19.0588 111.706L9.5294 102.176L2.27274e-07 92.647L19.0588 92.647Z" fill="#B3B1FC"/>
<rect x="19.0589" y="46.0588" width="46.5882" height="19.0588" transform="rotate(90 19.0589 46.0588)" fill="#B3B1FC" fill-opacity="0.7"/>
<rect x="19.0589" y="92.647" width="33.8823" height="19.0588" fill="#B3B1FC" fill-opacity="0.7"/>
<rect x="52.9411" y="79.9412" width="19.0588" height="12.7059" fill="#B3B1FC" fill-opacity="0.7"/>
<rect x="52.9411" y="60.8823" width="19.0588" height="12.7059" transform="rotate(90 52.9411 60.8823)" fill="#B3B1FC" fill-opacity="0.7"/>
<path d="M82.8 110V28.93H138.24V41.47H96.55V61.27H134.61V73.81H96.55V97.46H138.24V110H82.8ZM166.986 110L142.346 52.47H156.976L173.586 96.91H176.226L192.836 52.47H207.466L182.716 110H166.986ZM225.167 110L212.957 97.79V64.79L225.167 52.47H251.567L263.777 64.79V86.13H226.267V94.27L231.107 99.11H262.787V110H225.167ZM226.267 75.9H250.467V67.65L245.627 62.81H231.107L226.267 67.65V75.9ZM279.154 110V52.47H292.464V62.7L302.804 52.47H323.374L335.584 64.79V110H322.274V67.87L317.654 62.81H305.994L292.464 76.23V110H279.154ZM363.107 110L351.997 99.11V62.81H347.377V52.47H352.327L355.847 38.5H365.307V52.47H375.317V62.81H365.307V94.38L369.817 99.11H377.957V110H363.107Z" fill="#B3B1FC" fill-opacity="0.7"/>
</svg>
