<svg width="228" height="77" viewBox="0 0 228 77" fill="none" xmlns="http://www.w3.org/2000/svg">
<rect x="12.4412" y="12" width="24.8823" height="12.4412" fill="#B3B1FC" fill-opacity="0.7"/>
<path d="M12.4412 24.4412H0L6.22058 18.2206L12.4412 12L12.4412 24.4412Z" fill="#B3B1FC"/>
<path d="M34.5588 46.5586L34.5588 34.1174L40.7794 40.338L47 46.5586L34.5588 46.5586Z" fill="#B3B1FC"/>
<path d="M34.5588 54.853L47 54.853L40.7794 61.0736L34.5588 67.2942L34.5588 54.853Z" fill="#B3B1FC"/>
<path d="M12.4412 54.853L12.4412 67.2942L6.22058 61.0736L1.48359e-07 54.853L12.4412 54.853Z" fill="#B3B1FC"/>
<rect x="12.4412" y="24.4412" width="30.4117" height="12.4412" transform="rotate(90 12.4412 24.4412)" fill="#B3B1FC" fill-opacity="0.7"/>
<rect x="12.4412" y="54.8528" width="22.1176" height="12.4412" fill="#B3B1FC" fill-opacity="0.7"/>
<rect x="34.5588" y="46.5588" width="12.4412" height="8.29411" fill="#B3B1FC" fill-opacity="0.7"/>
<rect x="34.5588" y="34.1174" width="12.4412" height="8.29411" transform="rotate(90 34.5588 34.1174)" fill="#B3B1FC" fill-opacity="0.7"/>
<path d="M54.12 64V16.832H86.376V24.128H62.12V35.648H84.264V42.944H62.12V56.704H86.376V64H54.12ZM103.101 64L88.765 30.528H97.277L106.941 56.384H108.477L118.141 30.528H126.653L112.253 64H103.101ZM136.952 64L129.848 56.896V37.696L136.952 30.528H152.312L159.416 37.696V50.112H137.592V54.848L140.408 57.664H158.84V64H136.952ZM137.592 44.16H151.672V39.36L148.856 36.544H140.408L137.592 39.36V44.16ZM168.363 64V30.528H176.107V36.48L182.123 30.528H194.091L201.194 37.696V64H193.451V39.488L190.763 36.544H183.979L176.107 44.352V64H168.363ZM217.208 64L210.744 57.664V36.544H208.056V30.528H210.936L212.984 22.4H218.488V30.528H224.312V36.544H218.488V54.912L221.112 57.664H225.848V64H217.208Z" fill="#B3B1FC" fill-opacity="0.7"/>
</svg>
