<svg width="21" height="23" viewBox="0 0 21 23" fill="none" xmlns="http://www.w3.org/2000/svg">
<path d="M19.875 5.22915C16.4062 4.8854 12.9167 4.70831 9.4375 4.70831C7.375 4.70831 5.3125 4.81248 3.25 5.02081L1.125 5.22915M6.85417 4.17706L7.08333 2.81248C7.25 1.8229 7.375 1.08331 9.13542 1.08331H11.8646C13.625 1.08331 13.7604 1.86456 13.9167 2.8229L14.1458 4.17706M17.6354 8.52081L16.9583 19.0104C16.8438 20.6458 16.75 21.9166 13.8437 21.9166H7.15625C4.25 21.9166 4.15625 20.6458 4.04167 19.0104L3.36458 8.52081M8.76042 16.1875H12.2292M7.89583 12.0208H13.1042" stroke="#292D32" stroke-width="1.5" stroke-linecap="round" stroke-linejoin="round"/>
</svg>
