<svg width="50" height="50" viewBox="0 0 50 50" fill="none" xmlns="http://www.w3.org/2000/svg">
<path d="M30.5147 16.25V11.875C30.5147 10.7147 30.0499 9.60188 29.2225 8.78141C28.3952 7.96094 27.273 7.5 26.1029 7.5H10.6618C9.49169 7.5 8.36954 7.96094 7.54218 8.78141C6.71481 9.60188 6.25 10.7147 6.25 11.875V38.125C6.25 39.2853 6.71481 40.3981 7.54218 41.2186C8.36954 42.0391 9.49169 42.5 10.6618 42.5H26.1029C27.273 42.5 28.3952 42.0391 29.2225 41.2186C30.0499 40.3981 30.5147 39.2853 30.5147 38.125V33.75M17.2794 25H43.75M43.75 25L37.1324 18.4375M43.75 25L37.1324 31.5625" stroke="#292D32" stroke-width="2" stroke-linecap="round" stroke-linejoin="round"/>
</svg>
