<svg width="106" height="150" viewBox="0 0 106 150" fill="none" xmlns="http://www.w3.org/2000/svg">
<path d="M16.7835 135.186H20.1649V142.072C18.268 144.189 15.5464 145.247 12 145.247C9.00344 145.247 6.50172 144.258 4.49485 142.278C2.48797 140.299 1.48454 137.825 1.48454 134.856C1.48454 131.887 2.50172 129.399 4.53608 127.392C6.59794 125.357 9.08591 124.34 12 124.34C14.9141 124.34 17.3333 125.179 19.2577 126.856L17.4433 129.454C16.0412 128.271 14.323 127.68 12.2887 127.68C10.2268 127.68 8.49485 128.354 7.09278 129.701C5.71821 131.021 5.03093 132.739 5.03093 134.856C5.03093 136.973 5.69072 138.691 7.01031 140.01C8.35739 141.302 10.0206 141.948 12 141.948C13.9244 141.948 15.5189 141.536 16.7835 140.711V135.186ZM38.8647 124.835V128.01H28.1018V133.371H37.7513V136.381H28.1018V141.784H39.1946V145H24.6791V124.835H38.8647ZM47.1339 145L40.9896 129.66H44.3298L48.9896 141.247L53.6906 129.66H57.0308L50.8453 145H47.1339ZM73.8451 138.732H61.8039C61.8864 139.832 62.3949 140.725 63.3297 141.412C64.2644 142.1 65.3503 142.443 66.5874 142.443C68.5393 142.443 69.9963 141.838 70.9585 140.629L72.8142 142.649C71.1647 144.381 69.0066 145.247 66.34 145.247C64.1407 145.247 62.2987 144.519 60.8142 143.062C59.3297 141.605 58.5874 139.68 58.5874 137.289C58.5874 134.952 59.3434 133.055 60.8554 131.598C62.3675 130.141 64.1956 129.412 66.34 129.412C68.4843 129.412 70.2712 130.058 71.7008 131.351C73.1303 132.643 73.8451 134.361 73.8451 136.505V138.732ZM70.6286 136.175C70.6286 134.938 70.23 133.962 69.4327 133.247C68.663 132.533 67.6596 132.175 66.4224 132.175C65.1853 132.175 64.0994 132.546 63.1647 133.289C62.2575 134.031 61.8039 134.993 61.8039 136.175H70.6286ZM80.6451 145H77.4286V129.66H80.6451V132.423C81.1675 131.488 81.8822 130.759 82.7895 130.237C83.7242 129.687 84.7139 129.412 85.7585 129.412C87.5455 129.412 88.9613 129.948 90.006 131.021C91.0506 132.093 91.573 133.619 91.573 135.598V145H88.3152V136.588C88.3152 133.756 87.1469 132.34 84.8101 132.34C83.628 132.34 82.6383 132.725 81.841 133.495C81.0438 134.237 80.6451 135.296 80.6451 136.67V145ZM100.02 132.258V140.052C100.02 140.794 100.213 141.385 100.598 141.825C101.01 142.237 101.56 142.443 102.247 142.443C102.879 142.443 103.539 142.1 104.226 141.412L105.546 143.722C104.391 144.739 103.14 145.247 101.793 145.247C100.391 145.247 99.2092 144.766 98.247 143.804C97.2848 142.814 96.8037 141.536 96.8037 139.969V132.258H94.8656V129.66H96.8037V124.835H100.02V129.66H104.061V132.258H100.02Z" fill="#B3B1FC"/>
<rect x="29.4707" width="52.9411" height="26.4706" fill="#B3B1FC" fill-opacity="0.7"/>
<path d="M29.4706 26.4706H3L16.2353 13.2353L29.4706 0L29.4706 26.4706Z" fill="#B3B1FC"/>
<path d="M76.5294 73.5294L76.5294 47.0588L89.7647 60.2941L103 73.5294L76.5294 73.5294Z" fill="#B3B1FC"/>
<path d="M76.5294 91.1764L103 91.1764L89.7647 104.412L76.5294 117.647L76.5294 91.1764Z" fill="#B3B1FC"/>
<path d="M29.4706 91.1764L29.4706 117.647L16.2353 104.412L3 91.1764L29.4706 91.1764Z" fill="#B3B1FC"/>
<rect x="29.4707" y="26.4706" width="64.7058" height="26.4706" transform="rotate(90 29.4707 26.4706)" fill="#B3B1FC" fill-opacity="0.7"/>
<rect x="29.4707" y="91.1765" width="47.0588" height="26.4706" fill="#B3B1FC" fill-opacity="0.7"/>
<rect x="76.5293" y="73.5294" width="26.4706" height="17.6471" fill="#B3B1FC" fill-opacity="0.7"/>
<rect x="76.5293" y="47.0588" width="26.4706" height="17.6471" transform="rotate(90 76.5293 47.0588)" fill="#B3B1FC" fill-opacity="0.7"/>
</svg>
