<svg width="50" height="50" viewBox="0 0 50 50" fill="none" xmlns="http://www.w3.org/2000/svg">
<path d="M11.25 40C12.2108 38.924 16.7105 33.9722 18.0292 33.9722H31.9717C33.8825 33.9722 37.7833 38.0769 38.75 39.5237M45 25C45 36.0457 36.0457 45 25 45C13.9543 45 5 36.0457 5 25C5 13.9543 13.9543 5 25 5C36.0457 5 45 13.9543 45 25ZM32.1642 18.1832C32.1642 14.3676 28.9431 11.25 25.0006 11.25C21.0581 11.25 17.837 14.3676 17.837 18.1832C17.837 21.9989 21.0581 25.1165 25.0006 25.1165C28.943 25.1165 32.1642 21.9989 32.1642 18.1832Z" stroke="black" stroke-width="2"/>
</svg>
